<svg xmlns="http://www.w3.org/2000/svg" viewBox="0 0 810 540"><path fill="#003399" d="M0,0 h810 v540 h-810z"/><path fill="#FFCC00" d="M 404.951,59.865 411.686,80.583 433.58,80.583 415.947,93.395 422.585,114.135 404.951,101.323 387.317,114.135 394.053,93.406 376.42,80.594 398.216,80.594 z"/><path fill="#FFCC00" d="M 314.951,83.865 321.686,104.583 343.58,104.583 325.947,117.395 332.585,138.135 314.951,125.323 297.317,138.135 304.053,117.406 286.42,104.594 308.216,104.594 z"/><path fill="#FFCC00" d="M 248.951,149.865 255.686,170.583 277.58,170.583 259.947,183.395 266.585,204.135 248.951,191.323 231.317,204.135 238.053,183.406 220.42,170.594 242.216,170.594 z"/><path fill="#FFCC00" d="M 224.951,239.864 231.686,260.583 253.58,260.583 235.947,273.396 242.585,294.136 224.951,281.323 207.317,294.136 214.053,273.405 196.42,260.594 218.216,260.594 z"/><path fill="#FFCC00" d="M 248.951,329.865 255.686,350.584 277.58,350.584 259.947,363.395 266.585,384.135 248.951,371.324 231.317,384.135 238.053,363.406 220.42,350.594 242.216,350.594 z"/><path fill="#FFCC00" d="M 314.951,395.865 321.686,416.584 343.58,416.584 325.947,429.395 332.585,450.135 314.951,437.324 297.317,450.135 304.053,429.406 286.42,416.594 308.216,416.594 z"/><path fill="#FFCC00" d="M 494.951,83.865 501.686,104.583 523.58,104.583 505.947,117.395 512.584,138.135 494.951,125.323 477.316,138.135 484.053,117.406 466.42,104.594 488.215,104.594 z"/><path fill="#FFCC00" d="M 560.951,149.865 567.686,170.583 589.58,170.583 571.947,183.395 578.584,204.135 560.951,191.323 543.316,204.135 550.053,183.406 532.42,170.594 554.215,170.594 z"/><path fill="#FFCC00" d="M 584.951,239.865 591.686,260.583 613.58,260.583 595.947,273.396 602.585,294.136 584.951,281.323 567.317,294.136 574.053,273.405 556.42,260.594 578.216,260.594 z"/><path fill="#FFCC00" d="M 560.951,329.865 567.686,350.584 589.58,350.584 571.947,363.395 578.585,384.135 560.951,371.324 543.317,384.135 550.053,363.406 532.42,350.594 554.216,350.594 z"/><path fill="#FFCC00" d="M 404.951,419.865 411.686,440.584 433.58,440.584 415.947,453.395 422.585,474.135 404.951,461.324 387.317,474.135 394.053,453.406 376.42,440.594 398.216,440.594 z"/><path fill="#FFCC00" d="M 494.951,395.864 501.686,416.583 523.58,416.583 505.947,429.395 512.586,450.135 494.951,437.323 477.318,450.135 484.053,429.405 466.42,416.594 488.217,416.594 z"/></svg>